HIERARCHY
ROOT Hips
{
	OFFSET 0.000000 97.167313 0.000000
	CHANNELS 6 Xposition Yposition Zposition Xrotation Yrotation Zrotation
	JOINT Spine
	{
		OFFSET 0.000000 13.784798 0.064400
		CHANNELS 3 Xrotation Yrotation Zrotation
		JOINT Spine1
		{
			OFFSET 0.000000 12.037903 0.404700
			CHANNELS 3 Xrotation Yrotation Zrotation
			JOINT Spine2
			{
				OFFSET 0.000000 17.795601 0.420200
				CHANNELS 3 Xrotation Yrotation Zrotation
				JOINT Neck
				{
					OFFSET 0.000000 39.131302 11.954600
					CHANNELS 3 Xrotation Yrotation Zrotation
					JOINT Head
					{
						OFFSET 0.000000 14.456192 15.627699
						CHANNELS 3 Xrotation Yrotation Zrotation
						JOINT HeadTop_End
						{
							OFFSET 0.000000 15.703506 7.603401
							CHANNELS 3 Xrotation Yrotation Zrotation
							End Site
							{
								OFFSET 0.000000 17.447403 0.000000
							}
						}
					}
				}
				JOINT LeftShoulder
				{
					OFFSET 17.399500 24.608795 1.168800
					CHANNELS 3 Xrotation Yrotation Zrotation
					JOINT LeftArm
					{
						OFFSET 18.980635 5.765305 1.818600
						CHANNELS 3 Xrotation Yrotation Zrotation
						JOINT LeftForeArm
						{
							OFFSET 49.290169 0.000000 0.000000
							CHANNELS 3 Xrotation Yrotation Zrotation
							JOINT LeftHand
							{
								OFFSET 31.562012 0.000000 0.000000
								CHANNELS 3 Xrotation Yrotation Zrotation
								JOINT LeftHandThumb1
								{
									OFFSET 6.133995 -4.388519 7.076070
									CHANNELS 3 Xrotation Yrotation Zrotation
									JOINT LeftHandThumb2
									{
										OFFSET 6.037666 -3.485840 3.485847
										CHANNELS 3 Xrotation Yrotation Zrotation
										JOINT LeftHandThumb3
										{
											OFFSET 6.496506 -3.750763 3.750761
											CHANNELS 3 Xrotation Yrotation Zrotation
											JOINT LeftHandThumb4
											{
												OFFSET 5.616882 -3.242905 3.242910
												CHANNELS 3 Xrotation Yrotation Zrotation
												End Site
												{
													OFFSET -1.254608 7.132141 0.375429
												}
											}
										}
									}
								}
								JOINT LeftHandPinky1
								{
									OFFSET 18.920792 -0.453171 -11.426712
									CHANNELS 3 Xrotation Yrotation Zrotation
									JOINT LeftHandPinky2
									{
										OFFSET 4.919586 0.000000 0.000000
										CHANNELS 3 Xrotation Yrotation Zrotation
										JOINT LeftHandPinky3
										{
											OFFSET 5.233047 0.000000 0.000000
											CHANNELS 3 Xrotation Yrotation Zrotation
											JOINT LeftHandPinky4
											{
												OFFSET 5.571716 0.000000 0.000000
												CHANNELS 3 Xrotation Yrotation Zrotation
												End Site
												{
													OFFSET -3.459808 4.342407 -0.466164
												}
											}
										}
									}
								}
								JOINT LeftHandRing1
								{
									OFFSET 22.726120 -0.094986 -6.500475
									CHANNELS 3 Xrotation Yrotation Zrotation
									JOINT LeftHandRing2
									{
										OFFSET 6.408615 0.000000 0.000000
										CHANNELS 3 Xrotation Yrotation Zrotation
										JOINT LeftHandRing3
										{
											OFFSET 6.150223 0.000000 0.000000
											CHANNELS 3 Xrotation Yrotation Zrotation
											JOINT LeftHandRing4
											{
												OFFSET 6.145386 0.000000 0.000000
												CHANNELS 3 Xrotation Yrotation Zrotation
												End Site
												{
													OFFSET -3.671402 4.923981 -0.202372
												}
											}
										}
									}
								}
								JOINT LeftHandMiddle1
								{
									OFFSET 23.373947 0.000000 0.000001
									CHANNELS 3 Xrotation Yrotation Zrotation
									JOINT LeftHandMiddle2
									{
										OFFSET 6.996567 0.000000 0.000000
										CHANNELS 3 Xrotation Yrotation Zrotation
										JOINT LeftHandMiddle3
										{
											OFFSET 7.015945 0.000000 0.000000
											CHANNELS 3 Xrotation Yrotation Zrotation
											JOINT LeftHandMiddle4
											{
												OFFSET 7.721573 0.000000 0.000000
												CHANNELS 3 Xrotation Yrotation Zrotation
												End Site
												{
													OFFSET -4.651108 6.158463 0.251582
												}
											}
										}
									}
								}
								JOINT LeftHandIndex1
								{
									OFFSET 21.310577 -0.490082 6.209344
									CHANNELS 3 Xrotation Yrotation Zrotation
									JOINT LeftHandIndex2
									{
										OFFSET 7.536453 0.000000 0.000000
										CHANNELS 3 Xrotation Yrotation Zrotation
										JOINT LeftHandIndex3
										{
											OFFSET 7.512344 0.000000 0.000000
											CHANNELS 3 Xrotation Yrotation Zrotation
											JOINT LeftHandIndex4
											{
												OFFSET 10.212402 0.000000 0.000001
												CHANNELS 3 Xrotation Yrotation Zrotation
												End Site
												{
													OFFSET -5.180801 8.690506 1.388433
												}
											}
										}
									}
								}
							}
						}
					}
				}
				JOINT RightShoulder
				{
					OFFSET -17.399500 24.608795 1.168800
					CHANNELS 3 Xrotation Yrotation Zrotation
					JOINT RightArm
					{
						OFFSET -18.980635 5.765305 1.818600
						CHANNELS 3 Xrotation Yrotation Zrotation
						JOINT RightForeArm
						{
							OFFSET -49.290169 0.000000 0.000000
							CHANNELS 3 Xrotation Yrotation Zrotation
							JOINT RightHand
							{
								OFFSET -31.562012 0.000000 0.000000
								CHANNELS 3 Xrotation Yrotation Zrotation
								JOINT RightHandThumb1
								{
									OFFSET -6.133995 -4.388519 7.076070
									CHANNELS 3 Xrotation Yrotation Zrotation
									JOINT RightHandThumb2
									{
										OFFSET -6.037666 -3.485840 3.485847
										CHANNELS 3 Xrotation Yrotation Zrotation
										JOINT RightHandThumb3
										{
											OFFSET -6.496506 -3.750763 3.750761
											CHANNELS 3 Xrotation Yrotation Zrotation
											JOINT RightHandThumb4
											{
												OFFSET -5.616882 -3.242905 3.242910
												CHANNELS 3 Xrotation Yrotation Zrotation
												End Site
												{
													OFFSET 1.254608 7.132141 0.375429
												}
											}
										}
									}
								}
								JOINT RightHandIndex1
								{
									OFFSET -21.310577 -0.490082 6.209344
									CHANNELS 3 Xrotation Yrotation Zrotation
									JOINT RightHandIndex2
									{
										OFFSET -7.536453 0.000000 0.000000
										CHANNELS 3 Xrotation Yrotation Zrotation
										JOINT RightHandIndex3
										{
											OFFSET -7.512344 0.000000 0.000000
											CHANNELS 3 Xrotation Yrotation Zrotation
											JOINT RightHandIndex4
											{
												OFFSET -10.212402 0.000000 0.000001
												CHANNELS 3 Xrotation Yrotation Zrotation
												End Site
												{
													OFFSET 5.180801 8.690506 1.388433
												}
											}
										}
									}
								}
								JOINT RightHandMiddle1
								{
									OFFSET -23.373947 0.000000 0.000001
									CHANNELS 3 Xrotation Yrotation Zrotation
									JOINT RightHandMiddle2
									{
										OFFSET -6.996567 0.000000 0.000000
										CHANNELS 3 Xrotation Yrotation Zrotation
										JOINT RightHandMiddle3
										{
											OFFSET -7.015945 0.000000 0.000000
											CHANNELS 3 Xrotation Yrotation Zrotation
											JOINT RightHandMiddle4
											{
												OFFSET -7.721573 0.000000 0.000000
												CHANNELS 3 Xrotation Yrotation Zrotation
												End Site
												{
													OFFSET 4.651108 6.158463 0.251582
												}
											}
										}
									}
								}
								JOINT RightHandRing1
								{
									OFFSET -22.726120 -0.094986 -6.500475
									CHANNELS 3 Xrotation Yrotation Zrotation
									JOINT RightHandRing2
									{
										OFFSET -6.408615 0.000000 0.000000
										CHANNELS 3 Xrotation Yrotation Zrotation
										JOINT RightHandRing3
										{
											OFFSET -6.150223 0.000000 0.000000
											CHANNELS 3 Xrotation Yrotation Zrotation
											JOINT RightHandRing4
											{
												OFFSET -6.145386 0.000000 0.000000
												CHANNELS 3 Xrotation Yrotation Zrotation
												End Site
												{
													OFFSET 3.671402 4.923981 -0.202372
												}
											}
										}
									}
								}
								JOINT RightHandPinky1
								{
									OFFSET -18.920792 -0.453171 -11.426712
									CHANNELS 3 Xrotation Yrotation Zrotation
									JOINT RightHandPinky2
									{
										OFFSET -4.919586 0.000000 0.000000
										CHANNELS 3 Xrotation Yrotation Zrotation
										JOINT RightHandPinky3
										{
											OFFSET -5.233047 0.000000 0.000000
											CHANNELS 3 Xrotation Yrotation Zrotation
											JOINT RightHandPinky4
											{
												OFFSET -5.571716 0.000000 0.000000
												CHANNELS 3 Xrotation Yrotation Zrotation
												End Site
												{
													OFFSET 3.459808 4.342407 -0.466164
												}
											}
										}
									}
								}
							}
						}
					}
				}
			}
		}
	}
	JOINT LeftUpLeg
	{
		OFFSET 19.899099 -7.885101 -3.429500
		CHANNELS 3 Xrotation Yrotation Zrotation
		JOINT LeftLeg
		{
			OFFSET 1.745560 -36.997807 10.304700
			CHANNELS 3 Xrotation Yrotation Zrotation
			JOINT LeftFoot
			{
				OFFSET -1.745558 -29.803308 -13.615400
				CHANNELS 3 Xrotation Yrotation Zrotation
				JOINT LeftToeBase
				{
					OFFSET 1.181900 -18.539904 15.226099
					CHANNELS 3 Xrotation Yrotation Zrotation
					JOINT LeftToe_End
					{
						OFFSET -0.863701 1.402801 16.534700
						CHANNELS 3 Xrotation Yrotation Zrotation
						End Site
						{
							OFFSET 0.000000 16.616566 0.000000
						}
					}
				}
			}
		}
	}
	JOINT RightUpLeg
	{
		OFFSET -19.899099 -7.885101 -3.429500
		CHANNELS 3 Xrotation Yrotation Zrotation
		JOINT RightLeg
		{
			OFFSET -1.745560 -36.997807 10.304700
			CHANNELS 3 Xrotation Yrotation Zrotation
			JOINT RightFoot
			{
				OFFSET 1.745558 -29.803308 -13.615400
				CHANNELS 3 Xrotation Yrotation Zrotation
				JOINT RightToeBase
				{
					OFFSET -1.181900 -18.539904 15.226099
					CHANNELS 3 Xrotation Yrotation Zrotation
					JOINT RightToe_End
					{
						OFFSET 0.863701 1.402801 16.534700
						CHANNELS 3 Xrotation Yrotation Zrotation
						End Site
						{
							OFFSET 0.000000 16.616566 0.000000
						}
					}
				}
			}
		}
	}
}
MOTION
Frames: 5
Frame Time: 0.033333
0.006484 90.403969 1.448586 -2.090323 -0.620226 -0.152037 12.980909 1.227084 -0.411518 -4.624342 0.303134 -0.026625 -2.034104 0.314991 -0.020530 -1.395236 2.751095 0.437387 -5.953369 -4.549595 -0.711100 -0.000000 -0.000000 -0.000000 -0.750942 -9.041486 -18.142267 -7.114911 -3.307340 -58.169108 0.000001 -11.293203 -0.000004 -10.299947 10.199100 -8.254150 68.503690 -46.613125 18.953575 34.691449 48.197995 -21.244151 28.538822 13.680531 -37.355903 -0.000001 0.000007 0.000000 5.045633 8.133993 -81.419372 3.251519 5.243675 -63.582607 4.525413 5.699422 -76.882979 -0.000001 0.000003 -0.000004 5.181346 8.152727 -82.699241 5.069546 5.798807 -82.310869 1.733608 4.160680 -45.224615 -0.000001 0.000001 0.000002 4.584283 8.046026 -76.700094 5.512000 5.841260 -86.672136 1.301086 3.682558 -38.906998 -0.000001 -0.000001 0.000006 2.499740 6.358162 -83.510872 4.850818 5.765226 -80.140058 1.517201 3.934740 -42.159715 -0.000001 0.000003 0.000001 1.823663 5.529526 21.787076 -7.167771 9.814671 53.749180 -0.000003 13.459345 0.000010 -15.690734 -14.731227 7.370421 47.513029 55.975760 -28.870837 68.335127 -51.820543 54.873033 14.145348 -77.253872 -8.231830 0.000001 0.000000 -0.000000 -8.359269 10.974166 80.184222 4.936491 -4.648809 93.442268 0.026128 -0.493152 6.065300 -0.000002 -0.000001 -0.000001 -2.237930 -6.162090 83.286172 4.661694 -4.657168 90.055730 1.319592 -3.249887 44.189616 0.000001 -0.000000 -0.000004 2.716773 -6.824521 86.639584 3.617996 -4.539994 77.092987 1.053625 -2.952144 39.276023 0.000000 -0.000000 -0.000003 12.207735 -13.803211 93.180282 1.850662 -3.718036 52.911819 2.031968 -3.848106 55.659133 -0.000002 0.000001 -0.000001 -2.968825 8.602384 11.539002 20.898434 1.364620 1.307794 -14.916691 3.379854 -11.957688 -0.082892 -0.000003 0.000002 0.000000 0.000000 -0.000000 -3.205433 -9.533357 -10.651852 21.747560 -0.368357 -0.946882 -16.651170 -3.541598 12.121386 2.242945 0.000549 -0.242603 -0.000000 0.000000 0.000000 
0.008189 90.382347 1.431791 -2.090331 -0.647187 -0.152570 13.005876 1.211326 -0.408081 -4.624342 0.303134 -0.026625 -2.034105 0.314991 -0.020530 -1.378956 2.751093 0.437387 -5.879750 -4.565762 -0.713906 -0.000000 -0.000000 0.000000 -0.739528 -9.026459 -18.101574 -7.027416 -3.255748 -58.189523 0.000002 -11.454841 -0.000008 -11.183875 10.069116 -8.219824 68.503642 -46.613121 18.953541 34.691470 48.197985 -21.244125 28.538820 13.680549 -37.355913 -0.000002 0.000006 0.000002 5.045629 8.133991 -81.419359 3.251516 5.243675 -63.582600 4.525410 5.699425 -76.882986 -0.000002 0.000002 -0.000005 5.181346 8.152729 -82.699261 5.069547 5.798806 -82.310869 1.733605 4.160678 -45.224612 -0.000000 -0.000001 0.000005 4.584286 8.046026 -76.700094 5.512003 5.841265 -86.672136 1.301090 3.682550 -38.906984 0.000000 -0.000000 0.000004 2.499750 6.358164 -83.510865 4.850819 5.765227 -80.140112 1.517208 3.934729 -42.159711 -0.000003 0.000003 -0.000003 1.814587 5.582756 21.815891 -7.101640 9.768490 53.706095 0.000011 13.554866 -0.000010 -15.694789 -14.907091 6.940805 47.512995 55.975777 -28.870793 68.335121 -51.820560 54.872992 14.145277 -77.253865 -8.231917 0.000001 0.000000 0.000002 -8.359282 10.974155 80.184242 4.936486 -4.648796 93.442268 0.026120 -0.493147 6.065265 -0.000000 -0.000001 0.000001 -2.237929 -6.162090 83.286179 4.661697 -4.657167 90.055710 1.319590 -3.249889 44.189623 -0.000000 0.000000 -0.000004 2.716773 -6.824519 86.639590 3.617996 -4.539995 77.092994 1.053627 -2.952145 39.276019 -0.000001 -0.000000 -0.000003 12.207733 -13.803211 93.180289 1.850670 -3.718042 52.911816 2.031960 -3.848103 55.659133 -0.000001 -0.000000 0.000006 -2.991870 8.589628 11.543295 20.970409 1.388748 1.306351 -14.959718 3.382689 -11.959970 -0.082896 -0.000008 -0.000001 0.000000 -0.000001 -0.000000 -3.239380 -9.457421 -10.725321 21.810247 -0.372413 -0.798643 -16.670169 -3.530423 12.058404 2.236059 0.000607 -0.255551 -0.000000 -0.000002 0.000000 
0.010349 90.337967 1.413632 -2.090340 -0.669728 -0.152786 13.022754 1.201382 -0.395003 -4.624344 0.303134 -0.026625 -2.034105 0.314991 -0.020530 -1.362979 2.751094 0.437387 -5.678349 -4.591981 -0.722983 0.000000 0.000000 -0.000000 -0.728240 -8.996859 -18.098615 -6.821969 -3.166545 -58.191436 -0.000002 -11.751322 -0.000032 -12.146060 9.856310 -8.219823 68.503676 -46.613121 18.953573 34.691460 48.197978 -21.244122 28.538824 13.680538 -37.355899 -0.000001 0.000002 0.000002 5.045634 8.133994 -81.419366 3.251520 5.243675 -63.582613 4.525405 5.699426 -76.882986 -0.000000 0.000002 -0.000005 5.181347 8.152729 -82.699254 5.069546 5.798806 -82.310862 1.733607 4.160679 -45.224615 -0.000000 0.000000 0.000003 4.584278 8.046025 -76.700087 5.511997 5.841266 -86.672129 1.301088 3.682554 -38.906988 -0.000001 0.000000 0.000008 2.499745 6.358164 -83.510865 4.850815 5.765225 -80.140078 1.517200 3.934726 -42.159715 -0.000000 0.000003 -0.000003 1.800698 5.628820 21.831653 -6.814826 9.532902 53.642427 0.000006 14.037992 -0.000003 -15.702627 -15.111440 6.436646 47.513023 55.975763 -28.870813 68.335134 -51.820563 54.873012 14.145323 -77.253859 -8.231865 0.000000 0.000001 -0.000000 -8.359278 10.974168 80.184208 4.936490 -4.648798 93.442295 0.026129 -0.493160 6.065269 -0.000001 -0.000002 0.000005 -2.237931 -6.162087 83.286166 4.661695 -4.657169 90.055689 1.319592 -3.249893 44.189620 0.000001 -0.000000 -0.000004 2.716772 -6.824521 86.639584 3.617996 -4.539993 77.092987 1.053622 -2.952148 39.275999 -0.000000 -0.000000 -0.000003 12.207729 -13.803210 93.180282 1.850670 -3.718035 52.911819 2.031969 -3.848103 55.659140 -0.000001 -0.000001 0.000007 -3.050847 8.559679 11.555452 21.114381 1.436494 1.304308 -15.036004 3.373316 -11.985922 -0.082900 -0.000008 0.000001 0.000000 0.000000 0.000000 -3.306221 -9.357742 -10.818099 21.944961 -0.394610 -0.635006 -16.730151 -3.518912 11.997950 2.238390 0.000581 -0.251161 -0.000000 0.000000 0.000000 
0.014148 90.283653 1.398504 -2.092707 -0.695714 -0.153971 13.028816 1.199519 -0.373809 -4.624346 0.303134 -0.026625 -2.034104 0.314991 -0.020530 -1.348732 2.751095 0.432255 -5.053636 -4.624358 -0.772025 -0.000000 0.000000 0.000000 -0.723981 -8.965087 -18.136662 -6.480524 -3.019861 -58.156247 0.000007 -12.202222 0.000001 -13.097088 9.583650 -8.338658 68.503662 -46.613125 18.953551 34.691453 48.198005 -21.244101 28.538824 13.680544 -37.355906 -0.000001 0.000003 -0.000002 5.045627 8.133993 -81.419359 3.251514 5.243670 -63.582607 4.525405 5.699427 -76.882959 -0.000001 -0.000000 -0.000004 5.181346 8.152729 -82.699234 5.069546 5.798807 -82.310862 1.733607 4.160681 -45.224633 -0.000000 0.000000 -0.000000 4.584283 8.046022 -76.700087 5.511999 5.841262 -86.672143 1.301084 3.682549 -38.906981 0.000001 -0.000002 0.000004 2.499746 6.358160 -83.510858 4.850821 5.765228 -80.140085 1.517213 3.934735 -42.159711 -0.000001 0.000001 0.000001 1.779101 5.682971 21.837332 -6.375248 9.137795 53.572387 -0.000004 14.753147 0.000025 -15.614635 -15.374594 5.922500 47.512995 55.975746 -28.870803 68.335141 -51.820546 54.873023 14.145353 -77.253872 -8.231818 0.000001 0.000000 0.000001 -8.359282 10.974155 80.184269 4.936514 -4.648812 93.442274 0.026128 -0.493146 6.065290 0.000001 0.000001 -0.000003 -2.237932 -6.162091 83.286179 4.661694 -4.657167 90.055696 1.319593 -3.249891 44.189647 0.000001 0.000002 -0.000001 2.716773 -6.824518 86.639584 3.617996 -4.539993 77.093001 1.053629 -2.952145 39.276023 0.000000 0.000000 -0.000002 12.207735 -13.803201 93.180296 1.850660 -3.718038 52.911812 2.031961 -3.848108 55.659143 -0.000001 -0.000003 0.000003 -3.125278 8.528196 11.582534 21.293680 1.484096 1.301225 -15.127141 3.371298 -12.003771 -0.079532 0.000001 0.000003 -0.000000 0.000000 -0.000000 -3.392525 -9.287585 -10.912165 22.115842 -0.404979 -0.441806 -16.813849 -3.473123 11.890454 2.241007 0.000563 -0.246254 -0.000000 -0.000000 0.000000 
0.014083 90.201073 1.382053 -2.145676 -0.708167 -0.157922 13.029711 1.201071 -0.347059 -4.624341 0.303134 -0.026625 -2.034104 0.314991 -0.020530 -1.318851 2.748038 0.420975 -3.732467 -4.653890 -0.952198 -0.000000 0.000000 0.000000 -0.722549 -8.922805 -18.190667 -6.097289 -2.870673 -58.126754 -0.000002 -12.631122 -0.000023 -13.964538 9.308290 -8.484592 68.503662 -46.613125 18.953563 34.691473 48.197988 -21.244141 28.538824 13.680539 -37.355899 -0.000000 0.000002 -0.000002 5.045642 8.133994 -81.419379 3.251516 5.243672 -63.582593 4.525406 5.699424 -76.882973 -0.000000 0.000000 -0.000002 5.181346 8.152728 -82.699234 5.069545 5.798803 -82.310890 1.733605 4.160681 -45.224595 -0.000001 -0.000000 0.000005 4.584286 8.046024 -76.700101 5.512002 5.841261 -86.672143 1.301086 3.682550 -38.906991 0.000001 -0.000000 0.000004 2.499746 6.358163 -83.510899 4.850819 5.765232 -80.140071 1.517210 3.934734 -42.159718 -0.000002 0.000003 -0.000001 1.749958 5.749246 21.844381 -5.815739 8.635023 53.491784 0.000005 15.555116 -0.000021 -15.505615 -15.596151 5.413630 47.513033 55.975750 -28.870817 68.335100 -51.820584 54.872975 14.145364 -77.253872 -8.231835 -0.000001 -0.000001 0.000001 -8.359288 10.974160 80.184249 4.936497 -4.648799 93.442281 0.026121 -0.493153 6.065276 -0.000002 -0.000001 0.000001 -2.237927 -6.162091 83.286152 4.661691 -4.657166 90.055716 1.319592 -3.249889 44.189620 -0.000001 0.000000 -0.000004 2.716773 -6.824518 86.639563 3.617998 -4.539995 77.093008 1.053628 -2.952146 39.276036 0.000000 0.000000 -0.000005 12.207730 -13.803212 93.180255 1.850664 -3.718040 52.911823 2.031963 -3.848111 55.659126 -0.000002 -0.000001 0.000000 -3.178870 8.493434 11.618502 21.559506 1.514884 1.295286 -15.277808 3.373109 -12.040687 -0.074390 0.000004 -0.000002 0.000000 0.000001 0.000000 -3.481010 -9.406000 -11.073448 22.355441 -0.233093 -0.180336 -16.951391 -3.393207 11.720363 2.241362 0.000549 -0.245586 0.000000 -0.000002 0.000000 
